<svg width="50" height="50" viewBox="0 0 50 50" fill="none" xmlns="http://www.w3.org/2000/svg">
<path d="M17.0958 37.766L18.323 40.9569C14.7548 41.6333 12.0474 44.773 12.0474 48.535V49.9998H44.1438V48.535C44.1438 44.2811 40.6829 40.8202 36.429 40.8202H35.9927L34.818 37.766H17.0958Z" fill="#0A7F9C"/>
<path d="M42.0609 24.2915V0H30.6144L26.8412 3.77314C23.7393 1.31914 19.3288 1.08457 15.9703 3.31006L15.3146 3.74453L15.3145 7.4085L25.2509 17.6547H29.2246L29.6591 16.9989C31.9598 13.5267 31.6314 8.93027 28.9395 5.81777L31.8278 2.92969H39.1313V22.9599L42.0609 24.2915Z" fill="#0A7F9C"/>
<path d="M45.4783 29.0629L38.102 25.7101H20.058L11.7436 18.6747C10.3477 17.4936 8.61553 16.8614 6.80742 16.8614C6.59199 16.8614 6.37559 16.8703 6.1585 16.8884C4.11914 17.0583 2.26797 18.0123 0.946191 19.5745L0 20.6928L16.7149 34.8363H36.1253L48.6765 40.5414L49.2826 39.2078C51.0308 35.362 49.3241 30.811 45.4783 29.0629Z" fill="#0A7F9C"/>
</svg>
