<svg width="18" height="18" viewBox="0 0 18 18" fill="none" xmlns="http://www.w3.org/2000/svg">
<path fill-rule="evenodd" clip-rule="evenodd" d="M17.9798 9.41682C17.9798 8.81142 17.9274 8.22753 17.8287 7.66874H9.55653V10.9798H14.2945C14.091 12.0592 13.4758 12.9775 12.5425 13.5925L15.3702 15.7429C17.0258 14.2456 17.9798 12.033 17.9798 9.41682Z" fill="#0A7F9C"/>
<path fill-rule="evenodd" clip-rule="evenodd" d="M9.55714 17.8188C11.9243 17.8188 13.9174 17.057 15.3708 15.7435L12.5432 13.593C11.7561 14.1124 10.7425 14.4157 9.55714 14.4157C7.26923 14.4157 5.32728 12.9041 4.63285 10.867L1.7199 13.082C3.16357 15.8904 6.13009 17.8188 9.55714 17.8188Z" fill="#0A7F9C"/>
<path fill-rule="evenodd" clip-rule="evenodd" d="M4.63249 10.8668C4.45464 10.3474 4.35715 9.79331 4.35715 9.22137C4.35715 8.64943 4.45464 8.09536 4.63249 7.57596L1.71958 5.36099C1.12262 6.52161 0.785156 7.8327 0.785156 9.22137C0.785156 10.61 1.12262 11.9213 1.71958 13.0817L4.63249 10.8668Z" fill="#0A7F9C"/>
<path fill-rule="evenodd" clip-rule="evenodd" d="M9.55714 4.02721C10.8498 4.02721 12.0083 4.46301 12.9221 5.31679V5.31799L15.4256 2.86419C13.9052 1.4767 11.923 0.624146 9.55714 0.624146C6.13009 0.624146 3.16357 2.55255 1.7199 5.36096L4.63285 7.57592C5.32728 5.53887 7.26923 4.02721 9.55714 4.02721Z" fill="#0A7F9C"/>
</svg>
