<svg width="386" height="11" viewBox="0 0 386 11" fill="none" xmlns="http://www.w3.org/2000/svg">
<path fill-rule="evenodd" clip-rule="evenodd" d="M9.16947 5.32115C17.333 5.80823 38.7642 5.52488 96.9416 4.734C187.787 3.49529 259.896 3.10707 279.949 3.78407C281.541 3.85174 154.21 6.38269 141.125 6.08895C120.727 5.59898 23.3783 7.69108 3.80061 8.88749C-1.76486 9.21157 0.335974 10.03 3.96844 10.1588C9.64132 10.3791 24.8563 10.126 66.5735 9.45478C95.9098 8.99506 329.321 6.27621 354.848 7.14604C369.178 7.63384 377.889 8.14323 381.865 7.9334C385.194 7.76335 385.239 7.39876 382.34 6.44036C380.391 5.80166 382.573 5.37545 383.963 5.17314C386.097 4.83863 385.187 3.82079 382.489 3.0414C378.843 1.97263 372.579 2.09465 375.578 3.17289C376.228 3.406 376.386 4.01025 374.097 3.92244C367.429 3.65611 320.305 1.85894 307.52 1.62148C171.011 -0.990367 37.9011 4.32437 9.69152 3.61513C-0.309088 3.33691 4.29127 5.02862 9.16947 5.32115Z" fill="#0A7F9C"/>
</svg>
