<svg width="74" height="72" viewBox="0 0 74 72" fill="none" xmlns="http://www.w3.org/2000/svg">
<g id="Logo" filter="url(#filter0_d_362_1764)">
<path d="M33.0478 30.2138C32.0931 31.9677 31.0904 33.9026 30.0397 36.0184C29.1344 37.8398 27.7949 39.3544 26.0214 40.5623C23.5523 42.2433 20.8385 42.9539 17.8797 42.6939C15.7907 42.5109 13.8216 41.7901 11.9726 40.5313C10.9781 39.8545 10.0365 38.9053 9.14763 37.6837C6.67312 34.2789 5.1917 30.6065 4.70339 26.6666C4.50998 25.1038 4.46677 23.7302 4.57376 22.5458C4.64166 21.8111 4.64372 21.0807 4.761 20.3522C4.8577 19.7621 4.86387 19.1905 4.98732 18.5941C5.07374 18.1691 5.09226 17.7646 5.19513 17.3436C5.97013 14.1617 7.2986 11.3987 9.18055 9.05453C12.1393 5.37048 15.9813 2.96098 20.7068 1.82605C21.6285 1.60457 22.4776 1.47663 23.254 1.44224C23.3918 1.43605 23.4659 1.35764 23.6079 1.35145C26.9795 1.17811 30.0328 1.66235 32.768 2.80416C33.5457 3.12882 34.4016 3.5312 35.3357 4.01131C35.7575 4.23004 36.274 4.18258 36.739 4.29814C36.9598 4.35317 37.1916 4.3511 37.4344 4.29195C37.8706 4.18465 38.3253 4.2156 38.7368 4.04226C38.9234 3.96385 39.1236 3.93359 39.3376 3.95147C39.35 3.95254 39.362 3.9565 39.3727 3.96304C39.3833 3.96957 39.3923 3.9785 39.3989 3.98911C39.4055 3.99973 39.4095 4.01173 39.4106 4.02418C39.4118 4.03663 39.41 4.04918 39.4055 4.06083C39.3232 4.27406 39.2128 4.45497 39.0743 4.60354C37.7396 6.03837 36.3597 7.4897 34.9345 8.95755C34.8687 9.02495 34.8022 9.09374 34.735 9.1639C34.1986 9.72104 33.6561 10.2878 33.1075 10.8642C32.9099 11.0726 32.7556 11.1242 32.5293 11.2687C32.4744 11.3058 32.4175 11.3086 32.3585 11.2769C29.3271 9.66327 26.1139 9.23543 22.719 9.99343C20.7068 10.4419 18.9531 11.2989 17.458 12.5646C17.2083 12.775 16.9662 12.9752 16.7316 13.165C16.5012 13.3535 16.2927 13.5633 16.1062 13.7944C15.7338 14.2566 15.3387 14.6693 14.991 15.1646C13.2682 17.6133 12.4842 20.3701 12.6392 23.4351C12.7929 26.4905 13.8539 29.1318 15.8222 31.359C16.6603 32.3069 17.7391 32.8214 19.0587 32.9025C21.1505 33.0305 22.7087 32.2305 23.7334 30.5027C29.4615 20.8523 36.1478 11.3519 43.7922 2.00145C44.1296 1.58875 44.5966 0.998585 45.1234 0.831441C47.3235 0.131223 49.6479 -0.126716 52.0963 0.0576242C52.2252 0.0686296 52.3288 0.118154 52.407 0.206197C52.5469 0.367151 52.551 0.531544 52.4193 0.699376C46.7296 7.90378 41.5433 15.4934 36.8604 23.4681C35.5532 25.6954 34.2823 27.9439 33.0478 30.2138Z" fill="white"/>
<path d="M42.2552 34.3759C42.3718 34.6221 42.5652 34.6613 42.8354 34.4935C43.0741 34.3449 43.3224 34.272 43.5802 34.2747C43.6488 34.2747 43.7078 34.2507 43.7572 34.2025C43.8175 34.142 43.8875 34.1234 43.967 34.1468C44.2551 34.2273 44.4382 34.0643 44.718 34.0725C45.6371 34.1028 46.4793 34.3339 47.2447 34.7659C47.5595 34.9413 47.7508 35.191 48.0492 35.3684C48.7282 35.7791 49.3166 36.8521 49.5861 37.6011C49.652 37.7827 49.654 38.0427 49.7425 38.1934C49.7837 38.2635 49.8084 38.3385 49.8166 38.4183C49.9071 39.3455 49.9256 40.2507 49.8721 41.1339C49.8351 41.7502 49.8166 42.374 49.8166 43.0055C49.8166 43.2063 49.7878 43.3989 49.7302 43.5832C49.6396 43.8598 49.7219 44.1321 49.654 44.419C49.5162 44.9988 49.4791 45.9088 50.1087 46.2142C50.368 46.3408 50.726 46.3649 51.1828 46.2864C51.2568 46.2741 51.322 46.2424 51.3782 46.1915C51.6677 45.9301 51.931 45.6468 52.1683 45.3414C56.64 39.6034 59.275 33.2127 60.0733 26.1693C60.3641 23.6119 60.3662 20.7952 60.0795 17.7192C59.9663 16.4997 59.6968 15.2327 59.5096 13.9966C59.4986 13.9279 59.5068 13.8611 59.5342 13.7965C59.598 13.6438 59.6454 13.5158 59.7585 13.3879C61.5047 11.4042 63.1726 9.30834 64.7624 7.10039C64.8557 6.97107 64.9778 6.93324 65.1286 6.98689C65.3056 7.0488 65.4613 7.16779 65.5957 7.34388C65.9921 7.86526 66.3474 8.37907 66.6615 8.88532C68.2664 11.462 69.1957 14.2587 69.4494 17.2756C69.5221 18.1491 69.4748 19.4601 69.3075 21.2086C68.7231 27.3166 67.3227 33.4136 65.106 39.4996C62.1103 47.7233 57.7319 55.3109 51.9708 62.2621C51.691 62.5992 51.3727 62.886 51.0161 63.1226C49.58 64.0732 48.139 64.2514 46.6933 63.6571C45.9018 63.331 45.2962 62.9142 44.8765 62.4066C44.4293 61.8632 44.0473 61.174 43.7304 60.3389C42.0049 55.7923 41.1009 51.0703 41.0186 46.1729C41.0172 46.1014 40.996 46.0361 40.9548 45.9769C40.9082 45.9123 40.8904 45.8421 40.9013 45.7664C41.1194 44.1817 40.029 43.1396 38.4817 43.2551C37.3583 43.3391 36.6594 43.9684 36.3851 45.1433C35.4235 49.2428 33.9723 53.1744 32.0314 56.9383C31.993 57.0139 31.9436 57.082 31.8832 57.1426C31.8334 57.1911 31.7978 57.2532 31.7804 57.3221C31.6466 57.8627 31.3112 58.2383 31.0623 58.715C30.397 59.9792 29.8497 60.8576 29.4204 61.3501C28.0857 62.8812 26.4781 63.7465 24.5976 63.946C22.2945 64.1895 20.272 63.5484 18.5299 62.0228C18.0636 61.6128 17.6274 61.0515 17.2213 60.3389C13.6646 54.0769 10.8149 47.5472 8.67234 40.75C8.64354 40.6579 8.62982 40.5691 8.63119 40.4838C8.63119 40.3614 8.61885 40.2369 8.59416 40.1104C8.53243 39.7898 8.62228 39.7382 8.86369 39.9556C9.68464 40.6964 10.3986 41.528 11.273 42.1883C12.1564 42.8555 12.9897 43.37 13.7729 43.7318C14.6536 44.1376 15.5712 44.4685 16.5259 44.7244C16.9552 44.8385 17.4408 44.9321 17.9826 45.005C19.2624 45.1783 20.6101 45.0628 21.9269 45.0834C21.985 45.0841 22.0415 45.1032 22.0883 45.138C22.1352 45.1728 22.1701 45.2216 22.1882 45.2774C22.2664 45.5154 22.2657 45.741 22.1861 45.9542C22.1258 46.1179 22.0894 46.2851 22.0771 46.4557C21.9824 47.8093 21.9708 48.7083 22.0421 49.1527C22.2163 50.2436 22.4694 51.1254 22.8013 51.7981C22.9742 52.1448 23.2945 52.3126 23.7622 52.3016C24.0112 52.2933 24.3527 52.3573 24.5523 52.1757C24.8486 51.9088 25.0667 51.5924 25.2066 51.2265C25.3108 50.9569 25.4267 50.6941 25.5543 50.4382C26.8519 47.8258 28.1447 45.2402 29.4327 42.6815C29.4807 42.5838 29.5294 42.4875 29.5788 42.3926C30.5362 40.5354 31.7461 38.2718 33.2083 35.6016C35.7953 30.8762 38.4796 26.2443 41.2614 21.7059C41.9664 20.5531 42.6777 19.3762 43.3951 18.1752C46.8544 12.3823 50.6848 6.74202 54.8863 1.25446C55.007 1.09626 55.1428 0.947685 55.2937 0.808742C55.3572 0.750571 55.4346 0.709625 55.5185 0.689768C55.6024 0.66991 55.69 0.671797 55.7731 0.69525C58.3285 1.42711 60.6433 2.64458 62.7172 4.34766C63.0313 4.60629 63.0554 4.88968 62.7892 5.19783C55.0104 14.1741 48.1692 23.8176 42.2655 34.1282C42.2439 34.1658 42.2318 34.2079 42.23 34.251C42.2282 34.2941 42.2368 34.337 42.2552 34.3759Z" fill="white"/>
</g>
<defs>
<filter id="filter0_d_362_1764" x="0.516602" y="0" width="72.9658" height="72" filterUnits="userSpaceOnUse" color-interpolation-filters="sRGB">
<feFlood flood-opacity="0" result="BackgroundImageFix"/>
<feColorMatrix in="SourceAlpha" type="matrix" values="0 0 0 0 0 0 0 0 0 0 0 0 0 0 0 0 0 0 127 0" result="hardAlpha"/>
<feOffset dy="4"/>
<feGaussianBlur stdDeviation="2"/>
<feComposite in2="hardAlpha" operator="out"/>
<feColorMatrix type="matrix" values="0 0 0 0 0 0 0 0 0 0 0 0 0 0 0 0 0 0 0.25 0"/>
<feBlend mode="normal" in2="BackgroundImageFix" result="effect1_dropShadow_362_1764"/>
<feBlend mode="normal" in="SourceGraphic" in2="effect1_dropShadow_362_1764" result="shape"/>
</filter>
</defs>
</svg>
