<svg width="12" height="15" viewBox="0 0 12 15" fill="none" xmlns="http://www.w3.org/2000/svg">
<path id="Vector" d="M10.3301 10.9211C10.769 11.2331 11 11.5871 11 11.9474C11 12.3077 10.769 12.6616 10.3301 12.9737C9.89129 13.2857 9.2601 13.5448 8.5 13.725C7.7399 13.9052 6.87768 14 6 14C5.12232 14 4.2601 13.9052 3.5 13.725C2.7399 13.5448 2.10872 13.2857 1.66987 12.9737C1.23103 12.6616 1 12.3077 1 11.9474C1 11.5871 1.23103 11.2331 1.66987 10.9211M11 5.78947C11 9.2217 7.34355 11.287 6.28431 11.8132C6.1037 11.903 5.8963 11.903 5.71569 11.8132C4.65645 11.287 1 9.2217 1 5.78947C1 3.14432 3.23858 1 6 1C8.76142 1 11 3.14432 11 5.78947ZM8.14286 5.78947C8.14286 6.92311 7.18347 7.84211 6 7.84211C4.81653 7.84211 3.85714 6.92311 3.85714 5.78947C3.85714 4.65584 4.81653 3.73684 6 3.73684C7.18347 3.73684 8.14286 4.65584 8.14286 5.78947Z" stroke="white" stroke-width="1.3" stroke-linecap="round"/>
</svg>
