<svg width="50" height="60" viewBox="0 0 50 60" fill="none" xmlns="http://www.w3.org/2000/svg">
<path fill-rule="evenodd" clip-rule="evenodd" d="M24.2003 59.741C24.526 59.9146 24.8902 60.0029 25.2544 59.9999C25.6186 59.997 25.9799 59.9058 26.3085 59.7293L36.8023 54.0074C39.7781 52.3895 42.1084 50.5802 43.9265 48.4739C47.8794 43.8847 50.038 38.0275 49.9995 31.9879L49.8751 12.066C49.8633 9.77134 48.3857 7.72384 46.2005 6.97956L26.6787 0.298693C25.5032 -0.107278 24.2151 -0.0984524 23.0603 0.319286L3.61249 7.23844C1.43912 8.01214 -0.011772 10.0744 7.19763e-05 12.3719L0.124434 32.2792C0.162927 38.3276 2.39552 44.1582 6.4136 48.7004C8.24941 50.7773 10.6004 52.5601 13.6088 54.1516L24.2003 59.741ZM21.4224 36.3269C21.8607 36.7564 22.4292 36.9682 22.9977 36.9623C23.5662 36.9594 24.1318 36.7417 24.5641 36.3063L36.032 24.7744C36.8937 23.9065 36.8848 22.5121 36.0142 21.656C35.1407 20.8 33.7343 20.8058 32.8726 21.6737L22.9651 31.6347L18.9085 27.6573C18.0351 26.8013 16.6315 26.8101 15.7669 27.6779C14.9053 28.5458 14.9142 29.9402 15.7877 30.7963L21.4224 36.3269Z" fill="#0A7F9C"/>
</svg>
