<svg width="31" height="24" viewBox="0 0 31 24" fill="none" xmlns="http://www.w3.org/2000/svg">
<g id="Sign_out_squre">
<path id="Vector 9" d="M2.52393 12L1.82018 11.2895L1.10296 12L1.82018 12.7105L2.52393 12ZM13.8811 13C14.4334 13 14.8811 12.5523 14.8811 12C14.8811 11.4477 14.4334 11 13.8811 11V13ZM6.8678 6.28955L1.82018 11.2895L3.22767 12.7105L8.27529 7.71045L6.8678 6.28955ZM1.82018 12.7105L6.8678 17.7105L8.27529 16.2895L3.22767 11.2895L1.82018 12.7105ZM2.52393 13H13.8811V11H2.52393V13Z" fill="white"/>
<path id="Rectangle 21" d="M12.6191 8.13193V7.50643C12.6191 5.83595 12.6191 5.00071 13.1152 4.43484C13.6112 3.86897 14.4393 3.7596 16.0954 3.54087L20.9764 2.89622C24.1369 2.47879 25.7171 2.27008 26.7396 3.16635C27.762 4.06262 27.762 5.6566 27.762 8.84456V15.1554C27.762 18.3434 27.762 19.9374 26.7396 20.8337C25.7171 21.7299 24.1369 21.5212 20.9764 21.1038L16.0954 20.4591C14.4393 20.2404 13.6112 20.131 13.1152 19.5652C12.6191 18.9993 12.6191 18.164 12.6191 16.4936V16.066" stroke="white" stroke-width="2"/>
</g>
</svg>
