<svg width="50" height="50" viewBox="0 0 50 50" fill="none" xmlns="http://www.w3.org/2000/svg">
<path d="M35.9001 6.05512C35.2493 6.08487 34.6188 5.74422 34.3512 5.16172L33.4237 3.14146C33.0819 2.39683 33.4631 1.53929 34.2745 1.22572C35.0858 0.912531 36.0204 1.26158 36.3622 2.0062L37.2897 4.02647C37.6315 4.77109 37.2508 5.62864 36.439 5.94182C36.2631 6.01011 36.0806 6.04673 35.9001 6.05512Z" fill="#0A7F9C"/>
<path d="M42.453 4.95327C42.219 4.96395 41.9793 4.92771 41.7499 4.83768C40.9397 4.52106 40.5627 3.66237 40.9078 2.91927L41.8498 0.889854C42.195 0.146751 43.1312 -0.199242 43.9413 0.117378C44.7514 0.433616 45.1285 1.29269 44.7834 2.03579L43.8409 4.06521C43.5937 4.59774 43.0433 4.92618 42.453 4.95327Z" fill="#0A7F9C"/>
<path d="M46.2251 9.84722C45.5689 9.87736 44.9338 9.53022 44.6704 8.94085C44.3365 8.19317 44.7264 7.33906 45.5411 7.03274L47.8006 6.18282C48.6153 5.8765 49.5465 6.23394 49.8804 6.98162C50.2144 7.72892 49.8249 8.58303 49.0102 8.88935L46.7503 9.73927C46.5781 9.80412 46.401 9.83883 46.2251 9.84722Z" fill="#0A7F9C"/>
<path d="M46.9638 17.1883C44.9777 12.3471 40.1505 9.20643 34.6654 9.18735C34.6551 9.18735 34.6447 9.18735 34.6343 9.18735C31.7535 9.18735 29.6587 10.5858 27.8094 11.8199C26.4045 12.7575 25.1899 13.5685 23.9417 13.5792C22.694 13.5685 21.479 12.7579 20.0744 11.8199C18.2252 10.5854 16.1304 9.18735 13.2495 9.18735C13.2392 9.18735 13.2288 9.18735 13.2184 9.18735C7.73338 9.20643 2.9058 12.3471 0.919682 17.1883C-1.32196 22.6536 0.966141 26.9825 3.17916 31.1691C3.51516 31.8051 3.86277 32.4631 4.18798 33.1135C4.70069 34.1389 5.20261 35.9799 5.73399 37.9288C6.98298 42.5114 8.39874 47.7055 11.5592 49.4167C12.6373 50.0004 13.8622 50.1495 15.1017 49.8478C18.3795 49.0505 19.49 45.6276 20.4693 42.6075C21.5076 39.4074 22.2609 37.458 23.9421 37.4397C25.623 37.458 26.3767 39.4074 27.4145 42.6075C28.3943 45.6276 29.5044 49.0505 32.7822 49.8478C33.1995 49.9493 33.6151 50 34.0241 50C34.8297 50 35.61 49.8039 36.3247 49.4167C39.4851 47.7051 40.9013 42.5114 42.1503 37.9288C42.6813 35.9799 43.1832 34.1389 43.6959 33.1135C44.0211 32.4627 44.3687 31.8051 44.7051 31.1688C46.9177 26.9825 49.2058 22.6536 46.9638 17.1883ZM13.2549 17.9623C11.7297 17.9676 10.4653 18.834 9.87215 20.2793C9.63156 20.8657 9.02469 21.2269 8.38007 21.2269C8.19341 21.2269 8.00384 21.1968 7.81883 21.1327C6.9946 20.8481 6.57813 20.0047 6.88799 19.2486C7.94991 16.6611 10.3849 15.0475 13.2429 15.0372H13.2491C14.1269 15.0372 14.8399 15.6884 14.8433 16.4944C14.8466 17.302 14.1356 17.9592 13.2549 17.9623Z" fill="#0A7F9C"/>
</svg>
